<?xml version="1.0" encoding="UTF-8" standalone="no"?>
<!-- Created with Inkscape (http://www.inkscape.org/) -->

<svg
   xmlns:dc="http://purl.org/dc/elements/1.1/"
   xmlns:cc="http://creativecommons.org/ns#"
   xmlns:rdf="http://www.w3.org/1999/02/22-rdf-syntax-ns#"
   xmlns:svg="http://www.w3.org/2000/svg"
   xmlns="http://www.w3.org/2000/svg"
   xmlns:sodipodi="http://sodipodi.sourceforge.net/DTD/sodipodi-0.dtd"
   xmlns:inkscape="http://www.inkscape.org/namespaces/inkscape"
   width="210mm"
   height="297mm"
   viewBox="0 0 210 297"
   version="1.1"
   id="svg8">
  <defs
     id="defs2" />
  <sodipodi:namedview
     id="base"
     pagecolor="#ffffff"
     bordercolor="#666666"
     borderopacity="1.0"
     inkscape:pageopacity="0.0"
     inkscape:pageshadow="2"
     inkscape:zoom="0.49497475"
     inkscape:cx="440.05181"
     inkscape:cy="691.80624"
     inkscape:document-units="mm"
     inkscape:current-layer="layer1"
     showgrid="false"
     inkscape:window-width="1366"
     inkscape:window-height="731"
     inkscape:window-x="1366"
     inkscape:window-y="0"
     inkscape:window-maximized="1" />
  <metadata
     id="metadata5">
    <rdf:RDF>
      <cc:Work
         rdf:about="">
        <dc:format>image/svg+xml</dc:format>
        <dc:type
           rdf:resource="http://purl.org/dc/dcmitype/StillImage" />
      </cc:Work>
    </rdf:RDF>
  </metadata>
  <g
     inkscape:label="Camada 1"
     inkscape:groupmode="layer"
     id="layer1">
    <path
       style="fill:#000000;stroke-width:0.26458335;opacity:0.99999998"
       d="m 67.988774,200.97081 c -3.38638,-0.73564 -6.23812,-3.07351 -7.81836,-6.40954 l -0.84705,-1.78819 -0.13229,-6.87917 -0.1323,-6.87917 -12.67588,-21.69583 c -6.97173,-11.93271 -12.90739,-22.21707 -13.19035,-22.85413 -0.76095,-1.71317 -0.91274,-4.91832 -0.33417,-7.05574 0.57272,-2.11581 2.06212,-4.47774 3.60807,-5.72176 1.91177,-1.5384 89.332206,-51.317126 91.119416,-51.884988 1.23911,-0.393713 2.09908,-0.477303 3.91865,-0.380891 2.00911,0.106452 2.60132,0.257037 4.28676,1.090025 1.07558,0.53158 2.48615,1.49706 3.1346,2.145512 0.8584,0.858401 4.76499,7.330366 14.36637,23.800496 l 13.18738,22.621486 3.21757,0.004 c 3.56925,0.004 5.46139,0.43293 7.44098,1.68578 2.46849,1.56227 4.46226,4.4258 5.05539,7.26078 0.39047,1.86631 0.414,62.04624 0.0251,64.11233 -0.83189,4.41916 -4.59617,8.11551 -9.10687,8.94254 -1.09877,0.20145 -16.86111,0.28153 -52.5198,0.26681 -41.862716,-0.0173 -51.244726,-0.0851 -52.603176,-0.3802 z m 106.601746,-3.34299 c 1.76652,-0.82818 3.36554,-2.38934 4.23094,-4.13078 l 0.62274,-1.25313 0.0703,-31.66275 c 0.0694,-31.22747 0.063,-31.68244 -0.46514,-33.09392 -0.62145,-1.66097 -2.02593,-3.40589 -3.48044,-4.32408 -2.37916,-1.5019 0.33924,-1.43072 -54.64024,-1.43072 -36.424376,0 -50.991866,0.0832 -52.001176,0.29718 -2.86667,0.60761 -5.0181,2.31127 -6.25773,4.95534 l -0.70061,1.49436 v 31.61771 31.61771 l 0.60325,1.30835 c 1.19393,2.58942 2.80287,4.12886 5.17325,4.9498 1.29794,0.44951 4.00304,0.47054 53.357866,0.41497 l 51.99064,-0.0585 z m -29.95773,-7.44909 c -2.55088,-0.72237 -4.59863,-2.38216 -5.86666,-4.7552 -0.5107,-0.95573 -0.59694,-1.51847 -0.59694,-3.89524 0,-2.57901 0.0557,-2.87871 0.77737,-4.18136 0.97169,-1.75403 2.4286,-3.0861 4.35025,-3.97751 2.14958,-0.99715 5.08709,-0.98332 7.28214,0.0343 1.44627,0.67047 1.60768,0.69402 2.18125,0.3182 0.34067,-0.22321 1.35241,-0.59363 2.24832,-0.82315 4.06578,-1.04161 8.40718,0.98205 10.28268,4.79308 0.5518,1.12126 0.65166,1.70605 0.65514,3.83646 0.004,2.13707 -0.0929,2.71065 -0.64348,3.82955 -1.3377,2.71841 -4.14698,4.69871 -7.16959,5.05396 -1.56396,0.18381 -4.37399,-0.37385 -5.45591,-1.08275 -0.52079,-0.34123 -0.72873,-0.31225 -2.02822,0.28267 -1.75844,0.80504 -4.32248,1.04669 -6.01635,0.56701 z m 4.94721,-3.20188 c 0.74615,-0.34742 1.43779,-0.76298 1.53697,-0.92345 0.30301,-0.4903 1.46106,-0.3261 2.34956,0.33314 2.34763,1.74187 5.50857,1.62013 7.62701,-0.29375 2.92524,-2.64278 2.92524,-6.48623 0,-9.12901 -2.11844,-1.91388 -5.27938,-2.03562 -7.62701,-0.29375 -1.11251,0.82545 -1.63588,0.78956 -3.26641,-0.22404 -1.98723,-1.23533 -4.07678,-1.33467 -6.07781,-0.28895 -4.47671,2.33949 -4.49703,8.40176 -0.0359,10.71934 1.82949,0.95043 3.59869,0.98279 5.49362,0.10047 z m -71.021426,-1.00356 c -0.39007,-0.39007 -0.40797,-1.13576 -0.0436,-1.81657 0.26466,-0.49453 0.68186,-0.51177 12.3825,-0.51177 9.06503,0 12.188406,0.0798 12.426106,0.3175 0.17462,0.17463 0.3175,0.62706 0.3175,1.00542 0,0.37835 -0.14288,0.83079 -0.3175,1.00542 -0.45704,0.45703 -24.307966,0.45703 -24.764996,0 z m 0.0983,-23.6462 c -0.49346,-0.49346 -0.54351,-1.46733 -0.0983,-1.91256 0.24382,-0.24382 8.65274,-0.3175 36.238606,-0.3175 35.24335,0 35.92627,0.01 36.19499,0.51178 0.38417,0.71782 0.34147,1.23494 -0.14188,1.71828 -0.37386,0.37387 -4.01227,0.41578 -36.09672,0.41578 -32.084456,0 -35.722866,-0.0419 -36.096726,-0.41578 z m 0,-8.99583 c -0.49346,-0.49346 -0.54351,-1.46733 -0.0983,-1.91256 0.24382,-0.24383 8.65274,-0.3175 36.238606,-0.3175 35.24335,0 35.92627,0.01 36.19499,0.51177 0.38417,0.71783 0.34147,1.23494 -0.14188,1.71829 -0.37386,0.37387 -4.01227,0.41577 -36.09672,0.41577 -32.084456,0 -35.722866,-0.0419 -36.096726,-0.41577 z m -4.06703,-12.07256 c -0.227,-0.227 -0.3175,-1.91844 -0.3175,-5.93423 0,-4.75334 0.0639,-5.68064 0.41578,-6.0325 0.37475,-0.37476 4.91063,-0.41577 45.978626,-0.41577 40.80972,0 45.62421,0.043 46.1509,0.41187 0.57516,0.40286 0.58804,0.53073 0.58804,5.83823 0,3.23455 -0.11063,5.63307 -0.27389,5.93813 -0.26918,0.50296 -1.06555,0.51177 -46.24918,0.51177 -35.405766,0 -46.048266,-0.073 -46.292776,-0.3175 z m 89.905426,-5.90021 v -3.57188 H 120.70672 76.918184 v 3.39549 c 0,1.86752 0.0794,3.47486 0.17639,3.57187 0.097,0.097 19.80186,0.17639 43.788536,0.17639 h 43.61216 z M 60.172334,125.62874 c 1.11526,-2.35448 3.20643,-4.44564 5.5609,-5.5609 l 1.79224,-0.84895 47.810046,-0.13229 47.81006,-0.13229 -10.9739,-18.78542 c -6.03564,-10.331976 -11.07924,-18.821586 -11.20799,-18.865796 -0.12876,-0.0442 -12.76142,7.07885 -28.07259,15.82905 -21.912216,12.522626 -27.971226,15.876116 -28.462086,15.752916 -0.63303,-0.15888 -1.02327,-1.02112 -0.85353,-1.88586 0.0574,-0.29236 9.6453,-5.9107 26.680196,-15.634126 14.62484,-8.34777 27.21442,-15.534 27.97684,-15.9694 l 1.38621,-0.791628 -0.83257,-1.388406 c -1.59198,-2.654792 -3.65635,-4.315056 -5.99399,-4.820643 -1.29275,-0.279595 -3.38177,-0.213746 -4.49534,0.141703 -0.53654,0.171263 -20.91619,11.697314 -45.288126,25.613464 -29.97254,17.114026 -44.64397,25.631776 -45.33657,26.320926 -1.18027,1.17438 -1.93385,2.72411 -2.29647,4.72264 -0.50463,2.78119 -0.48174,2.82732 12.07282,24.32752 l 11.61032,19.88317 0.1323,-22.99171 0.13229,-22.99172 z"
       id="path826"
       inkscape:connector-curvature="0" />
  </g>
</svg>
