<svg width="44" height="44" viewBox="0 0 44 44" fill="none" xmlns="http://www.w3.org/2000/svg">
<g clip-path="url(#clip0)">
<path d="M22.5115 3.06063C22.1832 2.92905 21.8168 2.92905 21.4885 3.06063L5.0765 9.62488L22 16.3926L38.9235 9.62488L22.5115 3.06063ZM41.25 11.6571L23.375 18.8071V40.5926L41.25 33.4426V11.6599V11.6571ZM20.625 40.5954V18.8044L2.75 11.6571V33.4454L20.625 40.5954ZM20.4683 0.505877C21.4516 0.112624 22.5484 0.112624 23.5317 0.505877L43.1365 8.34888C43.3914 8.45103 43.6099 8.62716 43.7638 8.85457C43.9177 9.08199 43.9999 9.35028 44 9.62488V33.4454C43.9997 33.9949 43.8347 34.5317 43.5264 34.9866C43.2181 35.4414 42.7805 35.7935 42.2703 35.9974L22.5115 43.9009C22.1832 44.0325 21.8168 44.0325 21.4885 43.9009L1.7325 35.9974C1.22169 35.7939 0.783592 35.4421 0.474766 34.9871C0.16594 34.5322 0.000567405 33.9952 0 33.4454L0 9.62488C6.39099e-05 9.35028 0.0823453 9.08199 0.236244 8.85457C0.390143 8.62716 0.60861 8.45103 0.8635 8.34888L20.4683 0.505877Z" fill="black"/>
</g>
<defs>
<clipPath id="clip0">
<rect width="44" height="44" fill="white"/>
</clipPath>
</defs>
</svg>
