<svg width="28" height="28" viewBox="0 0 28 28" fill="none" xmlns="http://www.w3.org/2000/svg">
<path d="M2.90087 1.31783C2.58589 1.31791 2.27809 1.41193 2.01683 1.58786C1.75556 1.76379 1.5527 2.01364 1.43418 2.30546C1.31566 2.59729 1.28686 2.91783 1.35146 3.22612C1.41607 3.5344 1.57114 3.81641 1.79687 4.03609L11.7607 14L1.79687 23.9638C1.64491 24.1097 1.52359 24.2845 1.44001 24.4778C1.35644 24.6712 1.31228 24.8793 1.31014 25.09C1.308 25.3006 1.34791 25.5096 1.42753 25.7046C1.50716 25.8996 1.62489 26.0768 1.77385 26.2258C1.92281 26.3747 2.09999 26.4925 2.29502 26.5721C2.49005 26.6517 2.69901 26.6916 2.90966 26.6895C3.12031 26.6873 3.32841 26.6432 3.52178 26.5596C3.71515 26.476 3.8899 26.3547 4.0358 26.2028L13.9997 16.2389L23.9635 26.2028C24.1094 26.3547 24.2842 26.476 24.4775 26.5596C24.6709 26.6432 24.879 26.6874 25.0897 26.6895C25.3003 26.6916 25.5093 26.6517 25.7043 26.5721C25.8993 26.4925 26.0765 26.3747 26.2255 26.2258C26.3744 26.0768 26.4922 25.8996 26.5718 25.7046C26.6514 25.5096 26.6913 25.3006 26.6892 25.09C26.687 24.8793 26.6429 24.6712 26.5593 24.4778C26.4757 24.2845 26.3544 24.1097 26.2025 23.9638L16.2386 14L26.2025 4.03609C26.4313 3.81369 26.5875 3.52736 26.6508 3.21462C26.7141 2.90188 26.6814 2.57732 26.557 2.28348C26.4327 1.98963 26.2224 1.74021 25.9539 1.5679C25.6853 1.39559 25.371 1.30842 25.0521 1.31783C24.6407 1.33008 24.2503 1.502 23.9635 1.79716L13.9997 11.761L4.0358 1.79716C3.88825 1.64548 3.71179 1.52492 3.51686 1.44259C3.32193 1.36026 3.11247 1.31784 2.90087 1.31783Z" fill="#09B44D" stroke="#09B44D"/>
</svg>
