<svg width="44" height="44" viewBox="0 0 44 44" fill="none" xmlns="http://www.w3.org/2000/svg">
<path d="M20.9 6.59993C21.1575 6.59984 21.4068 6.69006 21.6046 6.85488C21.8024 7.0197 21.9361 7.24868 21.9824 7.50193L22 7.69993V14.2999C22.0003 15.5678 21.5624 16.7969 20.7606 17.7791C19.9588 18.7613 18.8423 19.4363 17.6 19.6899V36.2999C17.6005 36.5748 17.4981 36.8399 17.3129 37.043C17.1277 37.2462 16.8732 37.3726 16.5994 37.3974C16.3256 37.4223 16.0525 37.3437 15.8338 37.1772C15.615 37.0108 15.4666 36.7684 15.4176 36.4979L15.4 36.2999V19.6899C14.2212 19.4488 13.1539 18.828 12.3615 17.9224C11.5692 17.0169 11.0956 15.8765 11.0132 14.6761L11 14.2999V7.69993C10.9995 7.42505 11.1019 7.15994 11.2871 6.95681C11.4723 6.75367 11.7269 6.62724 12.0006 6.6024C12.2744 6.57757 12.5475 6.65613 12.7662 6.82261C12.985 6.9891 13.1334 7.23144 13.1824 7.50193L13.2 7.69993V14.2999C13.1996 14.9826 13.411 15.6487 13.8051 16.2062C14.1991 16.7637 14.7563 17.1854 15.4 17.4129V7.69993C15.3995 7.42505 15.5019 7.15994 15.6871 6.95681C15.8723 6.75367 16.1269 6.62724 16.4006 6.6024C16.6744 6.57757 16.9475 6.65613 17.1662 6.82261C17.385 6.9891 17.5334 7.23144 17.5824 7.50193L17.6 7.69993V17.4107C18.7836 16.9927 19.657 15.9191 19.7846 14.6277L19.8 14.2999V7.69993C19.8 7.40819 19.9159 7.1284 20.1222 6.92211C20.3285 6.71582 20.6083 6.59993 20.9 6.59993ZM31.9 6.59993C32.1575 6.59984 32.4068 6.69006 32.6046 6.85488C32.8024 7.0197 32.9361 7.24868 32.9824 7.50193L33 7.69993V36.2999C33.0005 36.5748 32.8981 36.8399 32.7129 37.043C32.5277 37.2462 32.2732 37.3726 31.9994 37.3974C31.7256 37.4223 31.4525 37.3437 31.2338 37.1772C31.015 37.0108 30.8666 36.7684 30.8176 36.4979L30.8 36.2999V24.1999H27.5C27.2425 24.2 26.9932 24.1098 26.7954 23.945C26.5976 23.7801 26.4639 23.5512 26.4176 23.2979L26.4 23.0999V12.0999C26.4 10.6412 26.9795 9.24229 28.0109 8.21084C29.0424 7.17939 30.4413 6.59993 31.9 6.59993ZM30.8 21.9999V8.98693C29.6164 9.40493 28.743 10.4785 28.6154 11.7721L28.6 12.0999V21.9999H30.8V8.98693V21.9999Z" fill="black"/>
</svg>
