<svg width="44" height="44" viewBox="0 0 44 44" fill="none" xmlns="http://www.w3.org/2000/svg">
<path d="M12.3512 30.7028C10.9455 33.1081 10.2052 35.8441 10.2062 38.6301C10.2062 39.1163 10.013 39.5826 9.66919 39.9265C9.32537 40.2703 8.85905 40.4634 8.37282 40.4634C7.88659 40.4634 7.42028 40.2703 7.07646 39.9265C6.73264 39.5826 6.53949 39.1163 6.53949 38.6301C6.53949 34.7379 7.70732 30.9979 9.81199 27.8519C8.43464 25.7378 7.71085 23.2647 7.73107 20.7416C7.75128 18.2185 8.51461 15.7573 9.92566 13.6656C12.5693 9.74776 21.23 6.29376 35.904 3.30176C35.4127 15.8619 33.847 24.1009 31.2052 28.0188C30.2016 29.5067 28.8972 30.7675 27.3761 31.7199C25.855 32.6724 24.151 33.2951 22.3743 33.5481C20.5975 33.801 18.7874 33.6785 17.061 33.1884C15.3345 32.6983 13.73 31.8515 12.3512 30.7028ZM14.5622 27.7694C15.5424 28.6187 16.6918 29.2504 17.9342 29.6226C19.1767 29.9947 20.484 30.099 21.7698 29.9285C23.0555 29.758 24.2905 29.3166 25.393 28.6334C26.4955 27.9502 27.4405 27.0409 28.1655 25.9654C30.0062 23.2374 31.35 17.1379 31.9862 7.90709C21.0907 10.4499 14.6373 13.2403 12.9653 15.7171C12.0681 17.0463 11.5354 18.5878 11.4206 20.1873C11.3057 21.7869 11.6127 23.3886 12.3108 24.8324C13.0992 24.0569 13.9553 23.3456 14.8775 22.7058L15.8088 22.0604C16.2085 21.7835 16.7018 21.6767 17.1802 21.7635C17.6587 21.8504 18.083 22.1237 18.3599 22.5233C18.6368 22.923 18.7436 23.4163 18.6568 23.8948C18.57 24.3732 18.2967 24.7975 17.897 25.0744L16.9675 25.7198C16.0987 26.3209 15.2929 27.0082 14.5622 27.7713V27.7694Z" fill="black"/>
</svg>
