<svg width="24" height="24" viewBox="0 0 24 24" fill="none" xmlns="http://www.w3.org/2000/svg">
<path d="M4.30006 16.7685L4.29772 16.9236L4.38365 17.0529C6.02036 19.5143 8.82556 21.14 12 21.14C15.1744 21.14 17.9796 19.5143 19.6164 17.0529L19.7023 16.9236L19.6999 16.7685C19.6882 15.9914 19.2887 15.3417 18.7372 14.8259C18.1877 14.312 17.4538 13.8967 16.6748 13.5712C15.1188 12.921 13.2624 12.58 12 12.58C10.7317 12.58 8.87529 12.921 7.32057 13.5712C6.54219 13.8968 5.80931 14.3122 5.26079 14.8262C4.71016 15.3422 4.31176 15.9919 4.30006 16.7685ZM0.5 12C0.5 5.65214 5.65214 0.5 12 0.5C18.3479 0.5 23.5 5.65214 23.5 12C23.5 18.3479 18.3479 23.5 12 23.5C5.65214 23.5 0.5 18.3479 0.5 12ZM16.1 7.2C16.1 4.93186 14.2681 3.1 12 3.1C9.73186 3.1 7.9 4.93186 7.9 7.2C7.9 9.46814 9.73186 11.3 12 11.3C14.2681 11.3 16.1 9.46814 16.1 7.2Z" stroke="#09B44D"/>
</svg>
