<svg width="30" height="33" viewBox="0 0 30 33" fill="none" xmlns="http://www.w3.org/2000/svg">
<path d="M21.0241 20.583H19.746L19.293 20.0838C20.8785 17.976 21.833 15.2396 21.833 12.2628C21.833 5.62505 17.1252 0.244614 11.3172 0.244614C5.50915 0.244614 0.80127 5.62505 0.80127 12.2628C0.80127 18.9005 5.50915 24.2809 11.3172 24.2809C13.9219 24.2809 16.3162 23.19 18.1606 21.3781L18.5974 21.8958V23.3564L26.6865 32.5827L29.0971 29.8278L21.0241 20.583ZM11.3172 20.583C7.28876 20.583 4.03693 16.8666 4.03693 12.2628C4.03693 7.65889 7.28876 3.94251 11.3172 3.94251C15.3455 3.94251 18.5974 7.65889 18.5974 12.2628C18.5974 16.8666 15.3455 20.583 11.3172 20.583Z" fill="#F9F9F9"/>
</svg>
