<svg width="24" height="24" viewBox="0 0 24 24" fill="none" xmlns="http://www.w3.org/2000/svg">
<path d="M2.4 1.9H0.5V0.5H3.60653L4.59949 2.61268L4.73453 2.9H5.052H22.8C23.1839 2.9 23.5 3.21614 23.5 3.6C23.5 3.72998 23.4687 3.84601 23.4219 3.92793L23.4218 3.9279L23.4182 3.9345L19.1222 11.7225L19.1216 11.7236C18.7999 12.3102 18.1744 12.7 17.46 12.7H8.52H8.22492L8.08229 12.9583L7.00229 14.9143L6.97075 14.9714L6.95493 15.0347L6.91893 15.1787L6.904 15.2384V15.3C6.904 15.7441 7.25986 16.1 7.704 16.1H21.1V17.5H7.2C6.15614 17.5 5.3 16.6439 5.3 15.6C5.3 15.2657 5.38593 14.9554 5.53412 14.6961L5.53417 14.6961L5.53792 14.6893L7.15792 11.7493L7.28148 11.5251L7.17176 11.2937L2.85176 2.18573L2.71624 1.9H2.4ZM5.312 21.6C5.312 20.5529 6.1594 19.7 7.2 19.7C8.24386 19.7 9.1 20.5561 9.1 21.6C9.1 22.6439 8.24386 23.5 7.2 23.5C6.1594 23.5 5.312 22.6471 5.312 21.6ZM17.312 21.6C17.312 20.5529 18.1594 19.7 19.2 19.7C20.2439 19.7 21.1 20.5561 21.1 21.6C21.1 22.6439 20.2439 23.5 19.2 23.5C18.1594 23.5 17.312 22.6471 17.312 21.6Z" stroke="#09B44D"/>
</svg>
