<svg width="32" height="32" viewBox="0 0 32 32" fill="none" xmlns="http://www.w3.org/2000/svg">
<path d="M24.8888 27.0072H14.2221V19.8961H12.4444V27.0072H7.11103V19.8961H5.33325V27.0072C5.33325 27.4787 5.52055 27.9308 5.85395 28.2642C6.18735 28.5976 6.63953 28.7849 7.11103 28.7849H24.8888C25.3603 28.7849 25.8125 28.5976 26.1459 28.2642C26.4793 27.9308 26.6666 27.4787 26.6666 27.0072V19.8961H24.8888V27.0072Z" fill="#09B44D"/>
<path d="M30.0356 11.7955L26.409 4.54221C26.2618 4.24602 26.0349 3.99676 25.7538 3.82246C25.4727 3.64815 25.1486 3.55572 24.8178 3.55554H7.18229C6.85155 3.55572 6.52741 3.64815 6.24633 3.82246C5.96525 3.99676 5.73836 4.24602 5.59118 4.54221L1.96451 11.7955C1.84069 12.044 1.77676 12.318 1.77785 12.5955V15.3333C1.77703 15.7487 1.9217 16.1513 2.18673 16.4711C2.57843 16.9201 3.0622 17.2795 3.60516 17.5249C4.14813 17.7703 4.73756 17.896 5.3334 17.8933C6.30564 17.8948 7.24823 17.5586 8.00007 16.9422C8.7519 17.559 9.69428 17.8961 10.6667 17.8961C11.6392 17.8961 12.5816 17.559 13.3334 16.9422C14.0852 17.559 15.0276 17.8961 16.0001 17.8961C16.9725 17.8961 17.9149 17.559 18.6667 16.9422C19.4186 17.559 20.361 17.8961 21.3334 17.8961C22.3059 17.8961 23.2482 17.559 24.0001 16.9422C24.8393 17.6313 25.9131 17.9682 26.9955 17.882C28.078 17.7958 29.0849 17.2932 29.8045 16.48C30.0728 16.1614 30.2206 15.7587 30.2223 15.3422V12.5955C30.2234 12.318 30.1595 12.044 30.0356 11.7955ZM26.6667 16.1155C26.2871 16.1146 25.9131 16.023 25.576 15.8483C25.239 15.6736 24.9485 15.4208 24.729 15.1111L24.0001 14.1155L23.2801 15.1111C23.0563 15.4161 22.7639 15.6641 22.4265 15.835C22.089 16.0059 21.7161 16.095 21.3378 16.095C20.9596 16.095 20.5867 16.0059 20.2492 15.835C19.9118 15.6641 19.6194 15.4161 19.3956 15.1111L18.6667 14.1155L17.9467 15.1111C17.723 15.4161 17.4306 15.6641 17.0931 15.835C16.7557 16.0059 16.3828 16.095 16.0045 16.095C15.6263 16.095 15.2533 16.0059 14.9159 15.835C14.5785 15.6641 14.286 15.4161 14.0623 15.1111L13.3334 14.1155L12.6134 15.1111C12.3896 15.4161 12.0972 15.6641 11.7598 15.835C11.4224 16.0059 11.0494 16.095 10.6712 16.095C10.2929 16.095 9.91999 16.0059 9.58256 15.835C9.24514 15.6641 8.95271 15.4161 8.72896 15.1111L8.00007 14.1155L7.27118 15.1111C7.0516 15.4208 6.76117 15.6736 6.42409 15.8483C6.08702 16.023 5.71307 16.1146 5.3334 16.1155C4.99841 16.1196 4.66643 16.0519 4.35979 15.917C4.05314 15.7821 3.77894 15.583 3.55562 15.3333V12.5955L7.18229 5.33332H24.8178L28.4445 12.5867V15.3067C28.2225 15.5599 27.9492 15.763 27.6427 15.9025C27.3362 16.0419 27.0035 16.1146 26.6667 16.1155Z" fill="#09B44D"/>
</svg>
