<svg width="44" height="44" viewBox="0 0 44 44" fill="none" xmlns="http://www.w3.org/2000/svg">
<g clip-path="url(#clip0)">
<path d="M6.00574e-09 9.625C6.00574e-09 8.53098 0.434597 7.48177 1.20818 6.70818C1.98177 5.9346 3.03098 5.5 4.125 5.5H28.875C29.969 5.5 31.0182 5.9346 31.7918 6.70818C32.5654 7.48177 33 8.53098 33 9.625V13.75H35.805C36.423 13.7506 37.033 13.89 37.59 14.158C38.1469 14.4259 38.6364 14.8156 39.0225 15.2983L43.0952 20.3857C43.6812 21.1178 44.0004 22.0276 44 22.9653V28.875C44 29.969 43.5654 31.0182 42.7918 31.7918C42.0182 32.5654 40.969 33 39.875 33H38.5C38.5 34.4587 37.9205 35.8576 36.8891 36.8891C35.8576 37.9205 34.4587 38.5 33 38.5C31.5413 38.5 30.1424 37.9205 29.1109 36.8891C28.0795 35.8576 27.5 34.4587 27.5 33H13.75C13.7516 33.7331 13.6066 34.4591 13.3235 35.1354C13.0405 35.8117 12.6251 36.4245 12.1018 36.9379C11.5785 37.4513 10.9578 37.8549 10.2763 38.125C9.59471 38.3951 8.86605 38.5262 8.13311 38.5106C7.40016 38.495 6.67773 38.3331 6.00828 38.0343C5.33883 37.7355 4.73588 37.3059 4.23486 36.7707C3.73384 36.2355 3.34487 35.6055 3.09082 34.9178C2.83677 34.2302 2.72276 33.4986 2.7555 32.7663C1.94988 32.4827 1.25214 31.9561 0.758572 31.2591C0.265006 30.5621 -4.60679e-05 29.7291 6.00574e-09 28.875L6.00574e-09 9.625ZM3.5585 30.129C4.0557 29.315 4.75616 28.6443 5.59102 28.183C6.42588 27.7217 7.36642 27.4855 8.3202 27.4977C9.27398 27.5099 10.2082 27.7701 11.0309 28.2526C11.8537 28.7352 12.5368 29.4235 13.013 30.25H28.237C28.7207 29.4148 29.4148 28.7207 30.25 28.237V9.625C30.25 9.26033 30.1051 8.91059 29.8473 8.65273C29.5894 8.39487 29.2397 8.25 28.875 8.25H4.125C3.76033 8.25 3.41059 8.39487 3.15273 8.65273C2.89487 8.91059 2.75 9.26033 2.75 9.625V28.875C2.74978 29.1397 2.82595 29.3988 2.96937 29.6212C3.11278 29.8436 3.31734 30.02 3.5585 30.129ZM33 27.5C33.9654 27.5 34.9138 27.7542 35.7499 28.2369C36.586 28.7196 37.2803 29.4139 37.763 30.25H39.875C40.2397 30.25 40.5894 30.1051 40.8473 29.8473C41.1051 29.5894 41.25 29.2397 41.25 28.875V22.9625C41.2494 22.6505 41.1428 22.3479 40.9475 22.1045L36.8775 17.017C36.7489 16.856 36.5858 16.7259 36.4001 16.6364C36.2145 16.5469 36.0111 16.5003 35.805 16.5H33V27.5ZM8.25 30.25C7.52065 30.25 6.82118 30.5397 6.30546 31.0555C5.78973 31.5712 5.5 32.2707 5.5 33C5.5 33.7293 5.78973 34.4288 6.30546 34.9445C6.82118 35.4603 7.52065 35.75 8.25 35.75C8.97935 35.75 9.67882 35.4603 10.1945 34.9445C10.7103 34.4288 11 33.7293 11 33C11 32.2707 10.7103 31.5712 10.1945 31.0555C9.67882 30.5397 8.97935 30.25 8.25 30.25ZM33 30.25C32.2707 30.25 31.5712 30.5397 31.0555 31.0555C30.5397 31.5712 30.25 32.2707 30.25 33C30.25 33.7293 30.5397 34.4288 31.0555 34.9445C31.5712 35.4603 32.2707 35.75 33 35.75C33.7293 35.75 34.4288 35.4603 34.9445 34.9445C35.4603 34.4288 35.75 33.7293 35.75 33C35.75 32.2707 35.4603 31.5712 34.9445 31.0555C34.4288 30.5397 33.7293 30.25 33 30.25Z" fill="black"/>
</g>
<defs>
<clipPath id="clip0">
<rect width="44" height="44" fill="white"/>
</clipPath>
</defs>
</svg>
